<?xml version="1.0" encoding="UTF-8" standalone="no"?>
<!DOCTYPE svg PUBLIC "-//W3C//DTD SVG 1.1//EN" "http://www.w3.org/Graphics/SVG/1.1/DTD/svg11.dtd">
<svg width="100%" height="100%" viewBox="0 0 1000 1000" version="1.1" xmlns="http://www.w3.org/2000/svg" xmlns:xlink="http://www.w3.org/1999/xlink" xml:space="preserve" xmlns:serif="http://www.serif.com/" style="fill-rule:evenodd;clip-rule:evenodd;stroke-linejoin:round;stroke-miterlimit:2;">
    <g id="AdLer-alt">
        <path d="M304.434,311.751L392.188,136.689L653.241,136.689L920.555,801.657L691.144,801.657L629.345,607.084L374.723,607.084L288.202,801.657L49.729,801.657L230.512,446.908C230.512,446.908 167.574,433.342 125.423,462.248C80.365,493.147 81.245,409.514 143.569,360.56C205.893,311.607 259.605,300.76 304.434,311.751" style="fill:url(#_Linear1);"/>
        <g transform="matrix(1.00394,0,0,1,-1.58554,0)">
            <path d="M413.024,308.376C429.609,274.897 464.161,251.865 504.055,251.865C560.102,251.865 605.605,297.324 605.605,353.317C605.605,409.31 560.102,454.769 504.055,454.769C469.474,454.769 438.907,437.464 420.581,411.04C431.625,418.876 445.16,423.481 459.774,423.481C497.052,423.481 527.318,393.514 527.318,356.603C527.318,319.693 497.052,289.726 459.774,289.726C441.634,289.726 425.154,296.821 413.024,308.376Z" style="fill:white;"/>
        </g>
        <g transform="matrix(1.00394,0,0,1,-1.58554,0)">
            <path d="M413.024,308.376C425.154,296.821 441.634,289.726 459.774,289.726C497.052,289.726 527.318,319.693 527.318,356.603C527.318,393.514 497.052,423.481 459.774,423.481C445.16,423.481 431.625,418.876 420.581,411.04C409.18,394.663 402.505,374.762 402.505,353.317C402.505,337.18 406.284,321.918 413.024,308.376Z"/>
        </g>
        <ellipse cx="441.927" cy="359.237" rx="25.499" ry="24.397" style="fill:white;"/>
        <g transform="matrix(1,0,0,1,3.62339,17.0156)">
            <g transform="matrix(125,0,0,125,339.134,777.736)">
                <path d="M0.033,-0.26C0.033,-0.343 0.051,-0.41 0.087,-0.461C0.123,-0.513 0.173,-0.538 0.239,-0.538C0.265,-0.538 0.289,-0.532 0.31,-0.521C0.331,-0.51 0.35,-0.493 0.366,-0.472L0.366,-0.762L0.509,-0.762L0.509,-0L0.387,-0L0.375,-0.065C0.358,-0.041 0.339,-0.022 0.316,-0.009C0.293,0.004 0.267,0.01 0.238,0.01C0.173,0.01 0.123,-0.014 0.087,-0.061C0.051,-0.109 0.033,-0.171 0.033,-0.25L0.033,-0.26ZM0.175,-0.25C0.175,-0.203 0.183,-0.167 0.198,-0.14C0.214,-0.114 0.239,-0.101 0.274,-0.101C0.295,-0.101 0.313,-0.105 0.328,-0.113C0.343,-0.121 0.356,-0.133 0.366,-0.149L0.366,-0.375C0.356,-0.391 0.344,-0.404 0.328,-0.413C0.313,-0.423 0.296,-0.427 0.275,-0.427C0.241,-0.427 0.215,-0.412 0.199,-0.381C0.183,-0.35 0.175,-0.31 0.175,-0.26L0.175,-0.25Z" style="fill-rule:nonzero;"/>
            </g>
            <g transform="matrix(125,0,0,125,416.565,777.736)">
                <path d="M0.208,-0.109L0.526,-0.109L0.526,-0L0.065,-0L0.065,-0.711L0.208,-0.711L0.208,-0.109Z" style="fill-rule:nonzero;"/>
            </g>
            <g transform="matrix(125,0,0,125,492.898,777.736)">
                <path d="M0.284,0.01C0.205,0.01 0.143,-0.014 0.099,-0.062C0.055,-0.111 0.033,-0.173 0.033,-0.249L0.033,-0.269C0.033,-0.348 0.054,-0.412 0.097,-0.463C0.14,-0.513 0.199,-0.538 0.274,-0.538C0.345,-0.538 0.4,-0.516 0.438,-0.473C0.476,-0.429 0.495,-0.371 0.495,-0.297L0.495,-0.224L0.18,-0.224L0.178,-0.221C0.181,-0.185 0.191,-0.155 0.211,-0.133C0.231,-0.11 0.26,-0.099 0.299,-0.099C0.331,-0.099 0.358,-0.102 0.38,-0.109C0.402,-0.115 0.425,-0.125 0.449,-0.139L0.488,-0.051C0.467,-0.034 0.438,-0.019 0.402,-0.007C0.366,0.004 0.326,0.01 0.284,0.01ZM0.274,-0.428C0.246,-0.428 0.224,-0.418 0.208,-0.399C0.193,-0.379 0.183,-0.353 0.18,-0.32L0.181,-0.318L0.355,-0.318L0.355,-0.329C0.355,-0.36 0.349,-0.384 0.336,-0.402C0.323,-0.419 0.303,-0.428 0.274,-0.428Z" style="fill-rule:nonzero;"/>
            </g>
            <g transform="matrix(125,0,0,125,565.142,777.736)">
                <path d="M0.333,-0.406L0.28,-0.407C0.259,-0.407 0.242,-0.403 0.228,-0.394C0.214,-0.385 0.204,-0.373 0.197,-0.357L0.197,-0L0.055,-0L0.055,-0.528L0.187,-0.528L0.193,-0.45C0.206,-0.478 0.222,-0.499 0.241,-0.515C0.261,-0.53 0.284,-0.538 0.31,-0.538C0.317,-0.538 0.323,-0.538 0.329,-0.536C0.335,-0.535 0.341,-0.534 0.348,-0.532L0.333,-0.406Z" style="fill-rule:nonzero;"/>
            </g>
        </g>
        <g transform="matrix(1,0,0,1,2.26875,4.72662)">
            <g transform="matrix(54.1667,0,0,54.1667,35.9634,859.933)">
                <path d="M0.445,-0.166L0.193,-0.166L0.138,-0L0.016,-0L0.264,-0.711L0.376,-0.711L0.622,-0L0.499,-0L0.445,-0.166ZM0.226,-0.265L0.413,-0.265L0.321,-0.545L0.318,-0.545L0.226,-0.265Z" style="fill-rule:nonzero;"/>
            </g>
            <g transform="matrix(54.1667,0,0,54.1667,69.9674,859.933)">
                <path d="M0.041,-0.257C0.041,-0.341 0.059,-0.409 0.095,-0.461C0.131,-0.512 0.182,-0.538 0.247,-0.538C0.276,-0.538 0.301,-0.532 0.324,-0.521C0.347,-0.509 0.366,-0.493 0.383,-0.471L0.383,-0.762L0.501,-0.762L0.501,-0L0.405,-0L0.391,-0.067C0.374,-0.042 0.354,-0.023 0.33,-0.01C0.306,0.004 0.278,0.01 0.246,0.01C0.181,0.01 0.131,-0.013 0.095,-0.061C0.059,-0.108 0.041,-0.17 0.041,-0.247L0.041,-0.257ZM0.159,-0.247C0.159,-0.198 0.169,-0.159 0.187,-0.13C0.206,-0.101 0.236,-0.086 0.276,-0.086C0.301,-0.086 0.323,-0.092 0.34,-0.103C0.358,-0.113 0.372,-0.129 0.383,-0.148L0.383,-0.379C0.372,-0.398 0.357,-0.414 0.34,-0.425C0.322,-0.435 0.301,-0.441 0.277,-0.441C0.237,-0.441 0.207,-0.424 0.188,-0.39C0.169,-0.356 0.159,-0.312 0.159,-0.257L0.159,-0.247Z" style="fill-rule:nonzero;"/>
            </g>
            <g transform="matrix(54.1667,0,0,54.1667,100.269,859.933)">
                <path d="M0.381,-0C0.377,-0.013 0.373,-0.026 0.37,-0.039C0.368,-0.052 0.366,-0.064 0.365,-0.077C0.349,-0.052 0.327,-0.032 0.301,-0.015C0.274,0.002 0.244,0.01 0.211,0.01C0.156,0.01 0.114,-0.004 0.085,-0.032C0.055,-0.061 0.041,-0.099 0.041,-0.149C0.041,-0.2 0.061,-0.24 0.101,-0.268C0.141,-0.297 0.198,-0.311 0.271,-0.311L0.364,-0.311L0.364,-0.357C0.364,-0.385 0.356,-0.407 0.34,-0.422C0.323,-0.438 0.3,-0.446 0.27,-0.446C0.243,-0.446 0.221,-0.439 0.205,-0.427C0.189,-0.414 0.181,-0.397 0.181,-0.376L0.067,-0.376L0.066,-0.379C0.064,-0.421 0.083,-0.458 0.122,-0.49C0.162,-0.522 0.213,-0.538 0.277,-0.538C0.338,-0.538 0.388,-0.522 0.426,-0.491C0.464,-0.46 0.482,-0.415 0.482,-0.356L0.482,-0.122C0.482,-0.1 0.484,-0.079 0.487,-0.059C0.49,-0.039 0.494,-0.019 0.501,-0L0.381,-0ZM0.236,-0.085C0.265,-0.085 0.292,-0.092 0.316,-0.107C0.34,-0.122 0.356,-0.139 0.364,-0.159L0.364,-0.237L0.27,-0.237C0.235,-0.237 0.208,-0.228 0.188,-0.211C0.169,-0.194 0.159,-0.174 0.159,-0.151C0.159,-0.131 0.166,-0.115 0.179,-0.103C0.192,-0.091 0.211,-0.085 0.236,-0.085Z" style="fill-rule:nonzero;"/>
            </g>
            <g transform="matrix(54.1667,0,0,54.1667,129.353,859.933)">
                <path d="M0.525,-0.247C0.525,-0.17 0.507,-0.108 0.471,-0.061C0.435,-0.013 0.385,0.01 0.32,0.01C0.29,0.01 0.264,0.005 0.241,-0.006C0.218,-0.017 0.198,-0.032 0.181,-0.053L0.181,0.203L0.063,0.203L0.063,-0.528L0.163,-0.528L0.174,-0.462C0.191,-0.487 0.212,-0.506 0.236,-0.519C0.26,-0.532 0.287,-0.538 0.319,-0.538C0.384,-0.538 0.435,-0.512 0.471,-0.461C0.507,-0.409 0.525,-0.341 0.525,-0.257L0.525,-0.247ZM0.407,-0.257C0.407,-0.311 0.397,-0.355 0.377,-0.389C0.356,-0.424 0.326,-0.441 0.286,-0.441C0.261,-0.441 0.24,-0.436 0.223,-0.425C0.205,-0.414 0.192,-0.4 0.181,-0.381L0.181,-0.142C0.192,-0.124 0.205,-0.109 0.223,-0.099C0.24,-0.089 0.261,-0.084 0.287,-0.084C0.327,-0.084 0.357,-0.099 0.377,-0.129C0.397,-0.159 0.407,-0.198 0.407,-0.247L0.407,-0.257Z" style="fill-rule:nonzero;"/>
            </g>
            <g transform="matrix(54.1667,0,0,54.1667,159.654,859.933)">
                <path d="M0.214,-0.657L0.214,-0.528L0.309,-0.528L0.309,-0.44L0.214,-0.44L0.214,-0.148C0.214,-0.127 0.219,-0.111 0.229,-0.102C0.238,-0.093 0.25,-0.088 0.266,-0.088C0.273,-0.088 0.279,-0.088 0.285,-0.09C0.291,-0.091 0.297,-0.092 0.303,-0.094L0.315,-0.007C0.305,-0.002 0.293,0.003 0.28,0.006C0.266,0.009 0.251,0.01 0.236,0.01C0.193,0.01 0.158,-0.003 0.134,-0.028C0.109,-0.054 0.096,-0.094 0.096,-0.148L0.096,-0.44L0.016,-0.44L0.016,-0.528L0.096,-0.528L0.096,-0.657L0.214,-0.657Z" style="fill-rule:nonzero;"/>
            </g>
            <g transform="matrix(54.1667,0,0,54.1667,177.816,859.933)">
                <path d="M0.189,-0L0.07,-0L0.07,-0.528L0.189,-0.528L0.189,-0ZM0.189,-0.658L0.07,-0.658L0.07,-0.762L0.189,-0.762L0.189,-0.658Z" style="fill-rule:nonzero;"/>
            </g>
            <g transform="matrix(54.1667,0,0,54.1667,191.481,859.933)">
                <path d="M0.246,-0.179L0.255,-0.136L0.258,-0.136L0.267,-0.179L0.372,-0.528L0.495,-0.528L0.307,-0L0.204,-0L0.016,-0.528L0.138,-0.528L0.246,-0.179Z" style="fill-rule:nonzero;"/>
            </g>
            <g transform="matrix(54.1667,0,0,54.1667,218.211,859.933)">
                <path d="M0.287,0.01C0.209,0.01 0.149,-0.014 0.106,-0.063C0.062,-0.111 0.041,-0.174 0.041,-0.252L0.041,-0.271C0.041,-0.349 0.062,-0.413 0.106,-0.463C0.149,-0.513 0.205,-0.538 0.274,-0.538C0.345,-0.538 0.399,-0.516 0.435,-0.472C0.472,-0.429 0.49,-0.37 0.49,-0.297L0.49,-0.233L0.163,-0.233L0.162,-0.23C0.163,-0.187 0.175,-0.152 0.196,-0.125C0.218,-0.098 0.25,-0.084 0.293,-0.084C0.326,-0.084 0.354,-0.088 0.377,-0.096C0.401,-0.104 0.423,-0.115 0.443,-0.13L0.481,-0.052C0.461,-0.035 0.435,-0.02 0.401,-0.008C0.368,0.004 0.33,0.01 0.287,0.01ZM0.274,-0.443C0.243,-0.443 0.218,-0.432 0.2,-0.409C0.181,-0.387 0.17,-0.358 0.165,-0.322L0.166,-0.32L0.373,-0.32L0.373,-0.329C0.373,-0.363 0.365,-0.39 0.349,-0.411C0.333,-0.432 0.308,-0.443 0.274,-0.443Z" style="fill-rule:nonzero;"/>
            </g>
            <g transform="matrix(54.1667,0,0,54.1667,259.294,859.933)">
                <path d="M0.041,-0.257C0.041,-0.341 0.059,-0.409 0.095,-0.461C0.131,-0.512 0.182,-0.538 0.247,-0.538C0.276,-0.538 0.301,-0.532 0.324,-0.521C0.347,-0.509 0.366,-0.493 0.383,-0.471L0.383,-0.762L0.501,-0.762L0.501,-0L0.405,-0L0.391,-0.067C0.374,-0.042 0.354,-0.023 0.33,-0.01C0.306,0.004 0.278,0.01 0.246,0.01C0.181,0.01 0.131,-0.013 0.095,-0.061C0.059,-0.108 0.041,-0.17 0.041,-0.247L0.041,-0.257ZM0.159,-0.247C0.159,-0.198 0.169,-0.159 0.187,-0.13C0.206,-0.101 0.236,-0.086 0.276,-0.086C0.301,-0.086 0.323,-0.092 0.34,-0.103C0.358,-0.113 0.372,-0.129 0.383,-0.148L0.383,-0.379C0.372,-0.398 0.357,-0.414 0.34,-0.425C0.322,-0.435 0.301,-0.441 0.277,-0.441C0.237,-0.441 0.207,-0.424 0.188,-0.39C0.169,-0.356 0.159,-0.312 0.159,-0.257L0.159,-0.247Z" style="fill-rule:nonzero;"/>
            </g>
            <g transform="matrix(54.1667,0,0,54.1667,289.596,859.933)">
                <path d="M0.189,-0L0.07,-0L0.07,-0.528L0.189,-0.528L0.189,-0ZM0.189,-0.658L0.07,-0.658L0.07,-0.762L0.189,-0.762L0.189,-0.658Z" style="fill-rule:nonzero;"/>
            </g>
            <g transform="matrix(54.1667,0,0,54.1667,303.261,859.933)">
                <path d="M0.044,-0.257C0.044,-0.341 0.062,-0.409 0.098,-0.461C0.134,-0.512 0.185,-0.538 0.25,-0.538C0.282,-0.538 0.31,-0.531 0.334,-0.518C0.358,-0.504 0.378,-0.485 0.395,-0.459L0.406,-0.528L0.505,-0.528L0.505,-0C0.505,0.068 0.484,0.121 0.442,0.158C0.4,0.195 0.34,0.213 0.263,0.213C0.237,0.213 0.21,0.21 0.18,0.202C0.15,0.195 0.123,0.185 0.099,0.173L0.118,0.08C0.138,0.09 0.161,0.098 0.186,0.104C0.211,0.109 0.236,0.112 0.262,0.112C0.305,0.112 0.337,0.103 0.356,0.085C0.376,0.066 0.386,0.038 0.386,-0L0.386,-0.054C0.37,-0.033 0.35,-0.017 0.327,-0.006C0.305,0.005 0.279,0.01 0.25,0.01C0.185,0.01 0.134,-0.013 0.098,-0.061C0.062,-0.108 0.044,-0.17 0.044,-0.247L0.044,-0.257ZM0.162,-0.247C0.162,-0.198 0.172,-0.159 0.19,-0.13C0.209,-0.101 0.239,-0.086 0.28,-0.086C0.305,-0.086 0.327,-0.092 0.344,-0.102C0.361,-0.113 0.375,-0.128 0.386,-0.148L0.386,-0.379C0.375,-0.399 0.361,-0.414 0.344,-0.425C0.326,-0.435 0.305,-0.441 0.281,-0.441C0.24,-0.441 0.21,-0.424 0.191,-0.39C0.172,-0.356 0.162,-0.312 0.162,-0.257L0.162,-0.247Z" style="fill-rule:nonzero;"/>
            </g>
            <g transform="matrix(54.1667,0,0,54.1667,333.562,859.933)">
                <path d="M0.189,-0L0.07,-0L0.07,-0.528L0.189,-0.528L0.189,-0ZM0.189,-0.658L0.07,-0.658L0.07,-0.762L0.189,-0.762L0.189,-0.658Z" style="fill-rule:nonzero;"/>
            </g>
            <g transform="matrix(54.1667,0,0,54.1667,347.227,859.933)">
                <path d="M0.214,-0.657L0.214,-0.528L0.309,-0.528L0.309,-0.44L0.214,-0.44L0.214,-0.148C0.214,-0.127 0.219,-0.111 0.229,-0.102C0.238,-0.093 0.25,-0.088 0.266,-0.088C0.273,-0.088 0.279,-0.088 0.285,-0.09C0.291,-0.091 0.297,-0.092 0.303,-0.094L0.315,-0.007C0.305,-0.002 0.293,0.003 0.28,0.006C0.266,0.009 0.251,0.01 0.236,0.01C0.193,0.01 0.158,-0.003 0.134,-0.028C0.109,-0.054 0.096,-0.094 0.096,-0.148L0.096,-0.44L0.016,-0.44L0.016,-0.528L0.096,-0.528L0.096,-0.657L0.214,-0.657Z" style="fill-rule:nonzero;"/>
            </g>
            <g transform="matrix(54.1667,0,0,54.1667,365.388,859.933)">
                <path d="M0.381,-0C0.377,-0.013 0.373,-0.026 0.37,-0.039C0.368,-0.052 0.366,-0.064 0.365,-0.077C0.349,-0.052 0.327,-0.032 0.301,-0.015C0.274,0.002 0.244,0.01 0.211,0.01C0.156,0.01 0.114,-0.004 0.085,-0.032C0.055,-0.061 0.041,-0.099 0.041,-0.149C0.041,-0.2 0.061,-0.24 0.101,-0.268C0.141,-0.297 0.198,-0.311 0.271,-0.311L0.364,-0.311L0.364,-0.357C0.364,-0.385 0.356,-0.407 0.34,-0.422C0.323,-0.438 0.3,-0.446 0.27,-0.446C0.243,-0.446 0.221,-0.439 0.205,-0.427C0.189,-0.414 0.181,-0.397 0.181,-0.376L0.067,-0.376L0.066,-0.379C0.064,-0.421 0.083,-0.458 0.122,-0.49C0.162,-0.522 0.213,-0.538 0.277,-0.538C0.338,-0.538 0.388,-0.522 0.426,-0.491C0.464,-0.46 0.482,-0.415 0.482,-0.356L0.482,-0.122C0.482,-0.1 0.484,-0.079 0.487,-0.059C0.49,-0.039 0.494,-0.019 0.501,-0L0.381,-0ZM0.236,-0.085C0.265,-0.085 0.292,-0.092 0.316,-0.107C0.34,-0.122 0.356,-0.139 0.364,-0.159L0.364,-0.237L0.27,-0.237C0.235,-0.237 0.208,-0.228 0.188,-0.211C0.169,-0.194 0.159,-0.174 0.159,-0.151C0.159,-0.131 0.166,-0.115 0.179,-0.103C0.192,-0.091 0.211,-0.085 0.236,-0.085Z" style="fill-rule:nonzero;"/>
            </g>
            <g transform="matrix(54.1667,0,0,54.1667,394.473,859.933)">
                <rect x="0.07" y="-0.762" width="0.119" height="0.762" style="fill-rule:nonzero;"/>
            </g>
            <g transform="matrix(54.1667,0,0,54.1667,408.138,859.933)">
                <path d="M0.287,0.01C0.209,0.01 0.149,-0.014 0.106,-0.063C0.062,-0.111 0.041,-0.174 0.041,-0.252L0.041,-0.271C0.041,-0.349 0.062,-0.413 0.106,-0.463C0.149,-0.513 0.205,-0.538 0.274,-0.538C0.345,-0.538 0.399,-0.516 0.435,-0.472C0.472,-0.429 0.49,-0.37 0.49,-0.297L0.49,-0.233L0.163,-0.233L0.162,-0.23C0.163,-0.187 0.175,-0.152 0.196,-0.125C0.218,-0.098 0.25,-0.084 0.293,-0.084C0.326,-0.084 0.354,-0.088 0.377,-0.096C0.401,-0.104 0.423,-0.115 0.443,-0.13L0.481,-0.052C0.461,-0.035 0.435,-0.02 0.401,-0.008C0.368,0.004 0.33,0.01 0.287,0.01ZM0.274,-0.443C0.243,-0.443 0.218,-0.432 0.2,-0.409C0.181,-0.387 0.17,-0.358 0.165,-0.322L0.166,-0.32L0.373,-0.32L0.373,-0.329C0.373,-0.363 0.365,-0.39 0.349,-0.411C0.333,-0.432 0.308,-0.443 0.274,-0.443Z" style="fill-rule:nonzero;"/>
            </g>
            <g transform="matrix(54.1667,0,0,54.1667,449.221,859.933)">
                <path d="M0.193,-0.095L0.526,-0.095L0.526,-0L0.075,-0L0.075,-0.711L0.193,-0.711L0.193,-0.095Z" style="fill-rule:nonzero;"/>
            </g>
            <g transform="matrix(54.1667,0,0,54.1667,478.755,859.933)">
                <path d="M0.287,0.01C0.209,0.01 0.149,-0.014 0.106,-0.063C0.062,-0.111 0.041,-0.174 0.041,-0.252L0.041,-0.271C0.041,-0.349 0.062,-0.413 0.106,-0.463C0.149,-0.513 0.205,-0.538 0.274,-0.538C0.345,-0.538 0.399,-0.516 0.435,-0.472C0.472,-0.429 0.49,-0.37 0.49,-0.297L0.49,-0.233L0.163,-0.233L0.162,-0.23C0.163,-0.187 0.175,-0.152 0.196,-0.125C0.218,-0.098 0.25,-0.084 0.293,-0.084C0.326,-0.084 0.354,-0.088 0.377,-0.096C0.401,-0.104 0.423,-0.115 0.443,-0.13L0.481,-0.052C0.461,-0.035 0.435,-0.02 0.401,-0.008C0.368,0.004 0.33,0.01 0.287,0.01ZM0.274,-0.443C0.243,-0.443 0.218,-0.432 0.2,-0.409C0.181,-0.387 0.17,-0.358 0.165,-0.322L0.166,-0.32L0.373,-0.32L0.373,-0.329C0.373,-0.363 0.365,-0.39 0.349,-0.411C0.333,-0.432 0.308,-0.443 0.274,-0.443Z" style="fill-rule:nonzero;"/>
            </g>
            <g transform="matrix(54.1667,0,0,54.1667,506.729,859.933)">
                <path d="M0.326,-0.421L0.275,-0.423C0.252,-0.423 0.233,-0.418 0.217,-0.409C0.202,-0.399 0.19,-0.385 0.181,-0.367L0.181,-0L0.063,-0L0.063,-0.528L0.171,-0.528L0.179,-0.452C0.192,-0.479 0.209,-0.5 0.23,-0.515C0.251,-0.53 0.275,-0.538 0.303,-0.538C0.31,-0.538 0.317,-0.538 0.323,-0.536C0.329,-0.535 0.335,-0.534 0.34,-0.532L0.326,-0.421Z" style="fill-rule:nonzero;"/>
            </g>
            <g transform="matrix(54.1667,0,0,54.1667,525.366,859.933)">
                <path d="M0.17,-0.528L0.177,-0.452C0.194,-0.479 0.216,-0.5 0.242,-0.515C0.268,-0.531 0.298,-0.538 0.331,-0.538C0.386,-0.538 0.428,-0.521 0.459,-0.487C0.49,-0.453 0.505,-0.401 0.505,-0.329L0.505,-0L0.387,-0L0.387,-0.328C0.387,-0.369 0.379,-0.398 0.363,-0.415C0.347,-0.432 0.323,-0.441 0.291,-0.441C0.265,-0.441 0.243,-0.436 0.225,-0.427C0.206,-0.417 0.191,-0.404 0.18,-0.387L0.18,-0L0.062,-0L0.062,-0.528L0.17,-0.528Z" style="fill-rule:nonzero;"/>
            </g>
            <g transform="matrix(54.1667,0,0,54.1667,555.667,859.933)">
                <path d="M0.326,-0.421L0.275,-0.423C0.252,-0.423 0.233,-0.418 0.217,-0.409C0.202,-0.399 0.19,-0.385 0.181,-0.367L0.181,-0L0.063,-0L0.063,-0.528L0.171,-0.528L0.179,-0.452C0.192,-0.479 0.209,-0.5 0.23,-0.515C0.251,-0.53 0.275,-0.538 0.303,-0.538C0.31,-0.538 0.317,-0.538 0.323,-0.536C0.329,-0.535 0.335,-0.534 0.34,-0.532L0.326,-0.421Z" style="fill-rule:nonzero;"/>
            </g>
            <g transform="matrix(54.1667,0,0,54.1667,574.305,859.933)">
                <path d="M0.381,-0C0.377,-0.013 0.373,-0.026 0.37,-0.039C0.368,-0.052 0.366,-0.064 0.365,-0.077C0.349,-0.052 0.327,-0.032 0.301,-0.015C0.274,0.002 0.244,0.01 0.211,0.01C0.156,0.01 0.114,-0.004 0.085,-0.032C0.055,-0.061 0.041,-0.099 0.041,-0.149C0.041,-0.2 0.061,-0.24 0.101,-0.268C0.141,-0.297 0.198,-0.311 0.271,-0.311L0.364,-0.311L0.364,-0.357C0.364,-0.385 0.356,-0.407 0.34,-0.422C0.323,-0.438 0.3,-0.446 0.27,-0.446C0.243,-0.446 0.221,-0.439 0.205,-0.427C0.189,-0.414 0.181,-0.397 0.181,-0.376L0.067,-0.376L0.066,-0.379C0.064,-0.421 0.083,-0.458 0.122,-0.49C0.162,-0.522 0.213,-0.538 0.277,-0.538C0.338,-0.538 0.388,-0.522 0.426,-0.491C0.464,-0.46 0.482,-0.415 0.482,-0.356L0.482,-0.122C0.482,-0.1 0.484,-0.079 0.487,-0.059C0.49,-0.039 0.494,-0.019 0.501,-0L0.381,-0ZM0.236,-0.085C0.265,-0.085 0.292,-0.092 0.316,-0.107C0.34,-0.122 0.356,-0.139 0.364,-0.159L0.364,-0.237L0.27,-0.237C0.235,-0.237 0.208,-0.228 0.188,-0.211C0.169,-0.194 0.159,-0.174 0.159,-0.151C0.159,-0.131 0.166,-0.115 0.179,-0.103C0.192,-0.091 0.211,-0.085 0.236,-0.085ZM0.446,-0.625L0.328,-0.625L0.328,-0.724L0.446,-0.724L0.446,-0.625ZM0.21,-0.625L0.092,-0.625L0.092,-0.724L0.21,-0.724L0.21,-0.625Z" style="fill-rule:nonzero;"/>
            </g>
            <g transform="matrix(54.1667,0,0,54.1667,603.389,859.933)">
                <path d="M0.392,-0.078C0.376,-0.05 0.355,-0.028 0.329,-0.013C0.304,0.003 0.274,0.01 0.241,0.01C0.184,0.01 0.14,-0.008 0.108,-0.046C0.076,-0.083 0.06,-0.141 0.06,-0.219L0.06,-0.528L0.178,-0.528L0.178,-0.218C0.178,-0.168 0.186,-0.133 0.2,-0.115C0.215,-0.096 0.238,-0.086 0.269,-0.086C0.297,-0.086 0.321,-0.092 0.341,-0.102C0.36,-0.112 0.375,-0.127 0.386,-0.146L0.386,-0.528L0.505,-0.528L0.505,-0L0.403,-0L0.392,-0.078Z" style="fill-rule:nonzero;"/>
            </g>
            <g transform="matrix(54.1667,0,0,54.1667,633.69,859.933)">
                <path d="M0.171,-0.528L0.177,-0.459C0.194,-0.485 0.216,-0.504 0.242,-0.518C0.268,-0.531 0.298,-0.538 0.333,-0.538C0.367,-0.538 0.397,-0.53 0.421,-0.515C0.446,-0.499 0.465,-0.476 0.477,-0.444C0.493,-0.474 0.515,-0.497 0.542,-0.513C0.568,-0.53 0.599,-0.538 0.635,-0.538C0.688,-0.538 0.73,-0.52 0.761,-0.483C0.792,-0.446 0.807,-0.39 0.807,-0.315L0.807,-0L0.688,-0L0.688,-0.315C0.688,-0.362 0.681,-0.394 0.665,-0.413C0.65,-0.432 0.627,-0.441 0.596,-0.441C0.57,-0.441 0.549,-0.434 0.531,-0.42C0.514,-0.407 0.501,-0.388 0.493,-0.365L0.494,-0.342L0.494,-0L0.375,-0L0.375,-0.315C0.375,-0.36 0.368,-0.392 0.352,-0.412C0.336,-0.431 0.313,-0.441 0.282,-0.441C0.258,-0.441 0.238,-0.436 0.221,-0.427C0.204,-0.418 0.191,-0.405 0.181,-0.388L0.181,-0L0.063,-0L0.063,-0.528L0.171,-0.528Z" style="fill-rule:nonzero;"/>
            </g>
            <g transform="matrix(54.1667,0,0,54.1667,680.416,859.933)">
                <path d="M0.287,0.01C0.209,0.01 0.149,-0.014 0.106,-0.063C0.062,-0.111 0.041,-0.174 0.041,-0.252L0.041,-0.271C0.041,-0.349 0.062,-0.413 0.106,-0.463C0.149,-0.513 0.205,-0.538 0.274,-0.538C0.345,-0.538 0.399,-0.516 0.435,-0.472C0.472,-0.429 0.49,-0.37 0.49,-0.297L0.49,-0.233L0.163,-0.233L0.162,-0.23C0.163,-0.187 0.175,-0.152 0.196,-0.125C0.218,-0.098 0.25,-0.084 0.293,-0.084C0.326,-0.084 0.354,-0.088 0.377,-0.096C0.401,-0.104 0.423,-0.115 0.443,-0.13L0.481,-0.052C0.461,-0.035 0.435,-0.02 0.401,-0.008C0.368,0.004 0.33,0.01 0.287,0.01ZM0.274,-0.443C0.243,-0.443 0.218,-0.432 0.2,-0.409C0.181,-0.387 0.17,-0.358 0.165,-0.322L0.166,-0.32L0.373,-0.32L0.373,-0.329C0.373,-0.363 0.365,-0.39 0.349,-0.411C0.333,-0.432 0.308,-0.443 0.274,-0.443Z" style="fill-rule:nonzero;"/>
            </g>
        </g>
    </g>
    <defs>
        <linearGradient id="_Linear1" x1="0" y1="0" x2="1" y2="0" gradientUnits="userSpaceOnUse" gradientTransform="matrix(-255.57,236.372,-236.372,-255.57,566.308,210.536)"><stop offset="0" style="stop-color:rgb(14,110,163);stop-opacity:1"/><stop offset="0.42" style="stop-color:rgb(27,126,183);stop-opacity:1"/><stop offset="1" style="stop-color:rgb(56,159,225);stop-opacity:1"/></linearGradient>
    </defs>
</svg>
